<svg xmlns="http://www.w3.org/2000/svg" viewBox="0 0 75.02 69.63"><defs><style>.cls-1{fill:#292929;}</style></defs><g id="Layer_2" data-name="Layer 2"><g id="Layer_1-2" data-name="Layer 1"><path class="cls-1" d="M75,35.82C75,52.19,65.45,64.9,50.8,69.63L46,60.07l-1.12-3a5.83,5.83,0,0,1,0-4.23,4.73,4.73,0,0,1,1.71-2.25c.79.31,4.23-4.19,4.23-4.19a2.35,2.35,0,0,0,1.53-2l1.53-4.64c1-.62.89-2.55.89-2.55,1.26-5.62-1.26-7.13-1.26-7.13.71,2-.46,4.64-1.12,5.88a1.89,1.89,0,0,1-.88.82c-1.15.57-2.5,3.14-2.5,3.14a19.37,19.37,0,0,1-2.27,2.92l-.14-.1a7.4,7.4,0,0,1,2-4.41,3.89,3.89,0,0,0,.75-2.75c-.49-4.22.84-6.22.84-6.22,2.13-3.57,1.81-4.45,1.81-4.45,0-.5-.18-6.1-.18-6.1a2.71,2.71,0,0,0-.65-1.45c-1-6.52-3.53-5.85-3.53-5.85,1.09,1.31,1.26,5.62,1.29,5.8a3,3,0,0,1-.34.88,6.27,6.27,0,0,0-1.31,4.09A7,7,0,0,1,46,26.68a24.89,24.89,0,0,0-1.83,4.68l-.94,1.82L43,33.12a41.69,41.69,0,0,1,0-4.76c.05-3.12-1.32-3.94-1.32-3.94C41.22,24.2,40,20.24,40,20.24a1.7,1.7,0,0,0-1.2-1c-2.33-4-4.17-2.71-4.17-2.71a5.57,5.57,0,0,1,2.23,4.74A9.25,9.25,0,0,0,38,26.42a2.93,2.93,0,0,1,.31,2.73c-.58.75-.68,5-.68,5l-.16,1c-.12,1-.85.8-.85.8a.79.79,0,0,1-.92-.68,5,5,0,0,0-.15-1.13,9.19,9.19,0,0,1-.64-2.42,11.64,11.64,0,0,0-.6-2.57c-.21,0-.36-.88-.36-.88L31.55,23c-.14-1.36-1.76-1.69-1.76-1.69a11,11,0,0,0-3.25-1.63l-.78-.08a6.81,6.81,0,0,1,2.5,3.62,3,3,0,0,0-.08,1.74l1.57,4.43a4.8,4.8,0,0,1,.45,1.43v4.5c.6,1.77-.73,2.27-.73,2.27-.93.76-2.47-.8-2.47-.8A22.51,22.51,0,0,0,24.52,34a4.46,4.46,0,0,1-.6-.67c-.45-.75-.18-3.17-.18-3.17,0-.64-1.1-2.06-1.1-2.06-.85-2.7.39-3.75.39-3.75a3.24,3.24,0,0,0-2.18,2.48A9.68,9.68,0,0,0,20.48,29a1.49,1.49,0,0,0-.38.91l-.17,3.27a3.59,3.59,0,0,0,.54,2L23.8,40.4s0,3.41-.25,6.2c0,.16,0,.33,0,.5a10.55,10.55,0,0,0,1.65,5.08,26.45,26.45,0,0,1,.27,5.62l-.34,2.35a39.88,39.88,0,0,1-3.59,8.46C8.4,63.21,0,51.09,0,35.82,0,15,15.64,0,37.57,0S75,14.92,75,35.82Z"/></g></g></svg>